<svg width="667" height="497" viewBox="0 0 667 497" fill="none" xmlns="http://www.w3.org/2000/svg">
<path d="M0 436.928H666.667V436.595H0V436.928Z" fill="#D8EBFF"/>
<path d="M570.963 458.056H599.868V458.389H570.963V458.056Z" fill="#D8EBFF"/>
<path d="M414.077 451.471H459.556V451.137H414.077V451.471Z" fill="#D8EBFF"/>
<path d="M528.781 445.674H588.148V446.007H528.781V445.674Z" fill="#D8EBFF"/>
<path d="M230.685 452.729H215.836V452.396H230.685V452.729Z" fill="#D8EBFF"/>
<path d="M152.78 452.729H203.964V452.396H152.78V452.729Z" fill="#D8EBFF"/>
<path d="M125.336 447.1H88.4092V446.767H125.336V447.1Z" fill="#D8EBFF"/>
<path d="M58.5528 0.333527C54.5404 0.333527 51.2757 3.59891 51.2757 7.60956V369.519C51.2757 373.532 54.5404 376.796 58.5528 376.796H316.018C320.029 376.796 323.294 373.532 323.294 369.519V7.60956C323.294 3.59891 320.029 0.333527 316.018 0.333527H58.5528ZM316.018 377.129H58.5528C54.3565 377.129 50.9424 373.716 50.9424 369.519V7.60956C50.9424 3.41489 54.3565 0.000183105 58.5528 0.000183105H316.018C320.213 0.000183105 323.628 3.41489 323.628 7.60956V369.519C323.628 373.716 320.213 377.129 316.018 377.129Z" fill="#D8EBFF"/>
<path d="M346.949 0.333527C342.937 0.333527 339.673 3.59891 339.673 7.60956V369.519C339.673 373.532 342.937 376.796 346.949 376.796H604.414C608.426 376.796 611.692 373.532 611.692 369.519V7.60956C611.692 3.59891 608.426 0.333527 604.414 0.333527H346.949ZM604.414 377.129H346.949C342.753 377.129 339.34 373.716 339.34 369.519V7.60956C339.34 3.41489 342.753 0.000183105 346.949 0.000183105H604.414C608.61 0.000183105 612.025 3.41489 612.025 7.60956V369.519C612.025 373.716 608.61 377.129 604.414 377.129Z" fill="#D8EBFF"/>
<path d="M169.701 251.329C131.331 250.013 101.284 217.835 102.598 179.463C103.915 141.047 136.093 111.003 174.464 112.316C212.835 113.631 242.883 145.808 241.565 184.224C240.251 222.597 208.072 252.643 169.701 251.329ZM288.097 194.567L288.697 177.047L277.94 173.532C277.497 167.545 276.497 161.633 275.072 155.937L284.189 149.215L277.996 132.757L266.719 133.665C264.031 128.343 260.872 123.281 257.331 118.532L263.173 108.781L251.161 95.9666L241.08 101.129C236.539 97.2706 231.751 93.7733 226.627 90.6826L228.26 79.492L212.263 72.2306L204.933 80.8213C199.349 79.0093 193.564 77.6546 187.579 76.756L184.852 65.784L167.285 65.1826L163.816 75.94C157.781 76.428 151.917 77.3853 146.221 78.8093L139.451 69.736L122.994 75.8853L123.904 87.164C118.581 89.896 113.52 93.0546 108.77 96.596L99.0661 90.756L86.2052 102.719L91.3667 112.845C87.5099 117.341 84.012 122.176 80.9656 127.301L69.7765 125.623L62.4713 141.616L71.1063 148.948C69.2959 154.533 67.8917 160.364 67.0407 166.305L56.0224 169.073L55.4219 186.596L66.2245 190.113C66.6656 196.145 67.6688 202.012 69.0932 207.707L59.9771 214.429L66.1703 230.889L77.4479 229.977C80.136 235.299 83.2948 240.361 86.8349 245.112L80.9921 254.861L93.0041 267.677L103.085 262.513C107.582 266.372 112.415 269.871 117.539 272.961L115.859 284.149L131.856 291.409L139.232 282.821C144.816 284.633 150.601 285.989 156.588 286.888L159.313 297.857L176.88 298.46L180.351 287.701C186.384 287.215 192.248 286.259 197.944 284.833L204.668 293.904L221.124 287.756L220.261 276.481C225.585 273.748 230.6 270.587 235.395 267.047L245.1 272.889L257.96 260.924L252.8 250.797C256.656 246.3 260.155 241.467 263.2 236.341L274.389 238.021L281.695 222.025L273.059 214.695C274.871 209.112 276.272 203.327 277.124 197.339L288.097 194.567Z" fill="#D8EBFF"/>
<path d="M556.455 111.118C553.204 107.637 553.391 102.179 556.872 98.9278C560.359 95.6718 565.818 95.8598 569.068 99.3411C572.32 102.824 572.132 108.281 568.647 111.537C565.166 114.788 559.706 114.601 556.455 111.118ZM587.943 136.626L592.362 132.5L590.596 129.021C591.948 127.453 593.146 125.768 594.187 124.032L598.05 124.614L600.552 119.092L597.58 116.562C598.223 114.612 598.687 112.606 598.982 110.585L602.784 109.63L602.98 103.577L599.263 102.378C599.096 100.33 598.782 98.3105 598.286 96.3065L601.414 93.9758L599.283 88.3051L595.4 88.6118C594.48 86.8092 593.4 85.0665 592.16 83.3878L594.171 80.0492L590.034 75.6172L586.564 77.3958C584.974 76.0438 583.311 74.8465 581.575 73.8051L582.136 69.9425L576.624 67.4278L574.096 70.3998C572.131 69.7691 570.127 69.3052 568.106 69.0092L567.163 65.2185L561.11 64.9998L559.899 68.7278C557.862 68.8852 555.831 69.2105 553.838 69.7172L551.519 66.5798L545.838 68.6985L546.155 72.5918C544.352 73.5118 542.588 74.5918 540.931 75.8331L537.57 73.8212L533.151 77.9478L534.927 81.4398C533.564 83.0171 532.378 84.6931 531.336 86.4291L527.474 85.8438L524.971 91.3691L527.943 93.8958C527.302 95.8491 526.836 97.8545 526.542 99.8758L522.74 100.828L522.543 106.884L526.262 108.081C526.416 110.118 526.742 112.15 527.238 114.154L524.1 116.472L526.231 122.144L530.123 121.848C531.043 123.652 532.123 125.393 533.364 127.07L531.354 130.41L535.49 134.841L538.96 133.064C540.55 134.417 542.212 135.613 543.95 136.654L543.376 140.506L548.89 143.02L551.428 140.06C553.392 140.692 555.387 141.144 557.419 141.449L558.36 145.241L564.414 145.458L565.626 141.73C567.662 141.576 569.694 141.25 571.686 140.742L574.004 143.881L579.687 141.762L579.368 137.868C581.171 136.948 582.924 135.88 584.592 134.628L587.943 136.626Z" fill="#D8EBFF"/>
<path d="M335.382 361.031C317.177 360.407 302.956 345.123 303.578 326.969C304.201 308.764 319.433 294.541 337.638 295.164C355.845 295.788 370.068 311.02 369.444 329.225C368.822 347.38 353.588 361.655 335.382 361.031ZM426.652 316.511L412.864 306.989L412.856 306.956C411.493 301.948 409.61 297.125 407.31 292.595L410.844 278.731L390.844 257.311L376.765 259.888C372.406 257.287 367.726 255.081 362.826 253.379L362.792 253.368L354.232 238.955L324.946 237.951L315.424 251.74L315.369 251.753C310.365 253.116 305.549 254.995 301.022 257.291L287.165 253.759L265.746 273.76L268.318 287.809L268.31 287.823C265.654 292.231 263.501 296.912 261.798 301.813L247.388 310.369L246.384 339.657L260.185 349.187C261.546 354.231 263.37 359.041 265.714 363.61L265.717 363.616L262.194 377.438L282.194 398.855L296.185 396.295C300.601 398.905 305.286 401.115 310.246 402.819L310.258 402.822L318.804 417.215L348.09 418.219L357.606 404.44C362.669 403.077 367.493 401.197 372.074 398.895L372.078 398.892L385.873 402.408L407.292 382.409L404.718 368.356C407.374 363.946 409.529 359.264 411.232 354.363L411.233 354.36L425.649 345.799L426.652 316.511Z" fill="#D8EBFF"/>
<path d="M448.92 122.89C429.322 122.89 413.053 138.484 412.377 158.218C411.686 178.376 427.524 195.336 447.682 196.028C457.449 196.354 466.764 192.87 473.906 186.192C481.044 179.52 485.158 170.474 485.493 160.724C486.182 140.565 470.345 123.604 450.188 122.912C449.764 122.897 449.34 122.89 448.92 122.89ZM448.97 201.681C448.477 201.681 447.985 201.672 447.489 201.656C424.228 200.858 405.952 181.285 406.749 158.025C407.546 134.765 427.15 116.494 450.38 117.284C473.641 118.081 491.917 137.654 491.12 160.916C490.734 172.169 485.986 182.608 477.752 190.305C469.87 197.672 459.698 201.681 448.97 201.681ZM436.61 226.968L456.622 227.654L463.25 218.057C463.629 217.508 464.19 217.112 464.834 216.938C468.521 215.946 472.18 214.545 475.708 212.77L475.726 212.761C476.314 212.472 477 212.382 477.67 212.557L487.056 214.946L501.69 201.281L499.94 191.717C499.816 191.042 499.944 190.345 500.297 189.757C502.228 186.553 503.865 183.038 505.165 179.312C505.378 178.65 505.83 178.094 506.418 177.748L516.449 171.79L517.136 151.778L507.53 145.145C507.028 144.798 506.653 144.297 506.46 143.72L506.394 143.494C505.39 139.817 503.994 136.204 502.242 132.754C501.933 132.145 501.857 131.445 502.025 130.784L504.43 121.346L490.764 106.709L481.178 108.464C480.506 108.588 479.814 108.461 479.229 108.112C475.896 106.122 472.376 104.48 468.768 103.224C468.564 103.154 468.357 103.06 468.18 102.95C467.79 102.712 467.466 102.382 467.234 101.99L461.272 91.9505L441.258 91.2651L434.626 100.87C434.232 101.442 433.64 101.845 432.969 102.006C429.266 103.021 425.665 104.413 422.23 106.157C421.621 106.465 420.92 106.544 420.261 106.374L410.828 103.969L396.192 117.637L397.942 127.201C398.052 127.801 397.964 128.421 397.69 128.966L397.564 129.193C395.629 132.409 393.989 135.934 392.692 139.672C392.473 140.298 392.04 140.83 391.469 141.169L381.432 147.129L380.746 167.141L390.36 173.78C390.908 174.158 391.304 174.72 391.477 175.362C392.513 179.197 393.909 182.837 395.624 186.185C395.722 186.377 395.8 186.58 395.852 186.79C395.965 187.242 395.965 187.717 395.849 188.168L393.452 197.573L407.118 212.208L416.636 210.466C417.305 210.345 417.993 210.469 418.576 210.813C421.969 212.82 425.506 214.462 429.092 215.7C429.74 215.905 430.301 216.342 430.658 216.945L436.61 226.968ZM458.064 233.334H457.968L434.878 232.544C433.92 232.51 433.044 231.992 432.554 231.168L426.337 220.697C423.032 219.498 419.774 217.986 416.628 216.193L406.618 218.024C405.673 218.202 404.709 217.878 404.054 217.176L388.286 200.292C387.632 199.59 387.38 198.605 387.616 197.674L390.133 187.794C388.604 184.666 387.324 181.324 386.321 177.834L376.28 170.9C375.49 170.356 375.033 169.446 375.065 168.488L375.857 145.397C375.889 144.44 376.408 143.562 377.233 143.073L387.721 136.845C388.965 133.441 390.472 130.198 392.214 127.181L390.374 117.137C390.202 116.194 390.522 115.226 391.222 114.573L408.109 98.8038C408.81 98.1478 409.797 97.8971 410.726 98.1331L420.638 100.661C423.846 99.1012 427.178 97.8158 430.572 96.8331L437.5 86.7985C438.045 86.0091 438.94 85.5211 439.913 85.5851L463.002 86.3771C463.961 86.4091 464.837 86.9278 465.326 87.7531L471.556 98.2411C474.865 99.4531 478.098 100.961 481.192 102.737L491.264 100.893C492.209 100.721 493.173 101.04 493.829 101.74L509.596 118.628C510.25 119.33 510.502 120.316 510.266 121.245L507.74 131.161C509.301 134.37 510.585 137.701 511.568 141.09L521.601 148.018C522.39 148.562 522.848 149.473 522.816 150.432L522.025 173.522C521.992 174.481 521.473 175.357 520.648 175.846L510.156 182.077C508.913 185.481 507.406 188.722 505.668 191.734L507.506 201.782C507.68 202.725 507.36 203.693 506.658 204.346L489.773 220.113C489.072 220.769 488.088 221.021 487.156 220.782L477.288 218.269C474.034 219.838 470.685 221.122 467.304 222.096L460.381 232.12C459.854 232.882 458.988 233.334 458.064 233.334Z" fill="#D8EBFF"/>
<path d="M511.252 67.1616L501.687 64.5923L499.119 55.0283L502.864 51.2843L506.815 59.4656L514.998 63.4163L511.252 67.1616Z" fill="#1B9C85"/>
<path d="M511.847 60.7588C513.588 59.0161 513.588 56.1761 511.845 54.4334C510.104 52.6921 507.276 52.7041 505.533 54.4454L510.291 47.3094L516.672 50.5348L518.071 57.2388L511.847 60.7588Z" fill="#1B9C85"/>
<path d="M514.836 57.7692C516.579 56.0252 516.579 53.1852 514.836 51.4425C513.093 49.7012 510.267 49.7146 508.524 51.4559C506.781 53.1986 506.781 56.0132 508.524 57.7559C510.267 59.4972 513.093 59.5105 514.836 57.7692ZM502.109 52.0385L509.119 45.0292L518.683 47.5972L521.251 57.1612L514.243 64.1719L504.677 61.6025L502.109 52.0385Z" fill="#F3F6F9"/>
<path d="M120.294 322.34L125.427 320.961L126.805 315.831L124.796 313.821L122.675 318.211L118.285 320.332L120.294 322.34Z" fill="#1B9C85"/>
<path d="M119.976 318.905C119.04 317.969 119.04 316.447 119.976 315.511C120.911 314.576 122.428 314.583 123.363 315.517L120.81 311.688L117.386 313.419L116.636 317.016L119.976 318.905Z" fill="#1B9C85"/>
<path d="M118.371 317.3C117.436 316.365 117.436 314.841 118.371 313.906C119.306 312.972 120.824 312.979 121.758 313.913C122.693 314.848 122.693 316.358 121.758 317.293C120.824 318.228 119.306 318.235 118.371 317.3ZM125.201 314.224L121.44 310.464L116.307 311.841L114.929 316.974L118.69 320.736L123.822 319.357L125.201 314.224Z" fill="#F3F6F9"/>
<path d="M101.816 40.9452L106.076 45.2066C107.185 46.3159 109 46.3159 110.11 45.2066C111.219 44.0972 111.219 42.2812 110.11 41.1719L105.85 36.9132C104.74 35.8039 102.925 35.8039 101.816 36.9132C100.707 38.0226 100.707 39.8359 101.816 40.9452Z" fill="#F3F6F9"/>
<path d="M98.8159 30.3359C102.099 29.1586 105.657 30.6999 106.764 33.7813C107.871 36.8626 106.107 40.3159 102.824 41.4946C99.5415 42.6733 95.9831 41.1319 94.8763 38.0519C93.7696 34.9693 95.5336 31.5159 98.8159 30.3359Z" fill="#1B9C85"/>
<path d="M94.1729 37.3336L94.7906 39.0522L107.467 34.5002L106.849 32.7816L94.1729 37.3336Z" fill="#F3F6F9"/>
<path d="M591.852 481.715C591.852 490.053 476.111 496.812 333.333 496.812C190.557 496.812 74.8145 490.053 74.8145 481.715C74.8145 473.376 190.557 466.616 333.333 466.616C476.111 466.616 591.852 473.376 591.852 481.715Z" fill="#F3F2F1"/>
<path d="M126.746 85.1145C127.572 88.7465 128.84 91.2025 130.55 92.4812C132.259 93.7625 134.276 94.1359 136.599 93.6065C138.987 93.0652 140.659 91.8692 141.613 90.0172C142.569 88.1665 142.589 85.2279 141.675 81.2052C140.904 77.8199 139.659 75.4999 137.939 74.2479C136.217 72.9972 134.188 72.6372 131.849 73.1692C129.608 73.6785 127.989 74.8825 126.993 76.7759C125.995 78.6719 125.913 81.4505 126.746 85.1145ZM115.621 87.5919C114.286 81.7212 114.882 76.7785 117.41 72.7612C119.937 68.7465 124.121 66.0759 129.96 64.7479C135.947 63.3879 140.924 63.9452 144.893 66.4239C148.863 68.9012 151.505 73.0345 152.821 78.8252C153.777 83.0292 153.853 86.6372 153.051 89.6492C152.248 92.6612 150.679 95.2212 148.345 97.3252C146.011 99.4305 142.848 100.935 138.857 101.841C134.801 102.765 131.297 102.883 128.345 102.195C125.394 101.507 122.774 99.9518 120.486 97.5292C118.198 95.1092 116.577 91.7959 115.621 87.5919Z" fill="#17181A"/>
<path d="M168.129 80.8934C168.656 83.2161 169.517 84.8268 170.711 85.7268C171.904 86.6241 173.212 86.9108 174.636 86.5881C176.075 86.2601 177.132 85.4427 177.807 84.1374C178.483 82.8307 178.544 80.9681 177.995 78.5494C177.481 76.2908 176.632 74.7161 175.449 73.8241C174.265 72.9321 172.987 72.6414 171.613 72.9534C170.157 73.2841 169.083 74.1188 168.389 75.4548C167.695 76.7894 167.608 78.6041 168.129 80.8934ZM158.124 83.1934C157.22 79.2188 157.817 75.6388 159.915 72.4521C162.011 69.2668 165.341 67.1548 169.904 66.1174C175.123 64.9321 179.408 65.5481 182.763 67.9681C185.459 69.9187 187.212 72.6761 188.023 76.2414C188.933 80.2508 188.352 83.8361 186.276 87.0001C184.2 90.1641 180.815 92.2788 176.12 93.3454C171.933 94.2974 168.305 94.0054 165.237 92.4654C161.465 90.5547 159.095 87.4628 158.124 83.1934Z" fill="#17181A"/>
<path d="M202.925 73.0078C203.393 75.0692 204.174 76.4998 205.268 77.3012C206.361 78.1025 207.57 78.3505 208.896 78.0505C210.057 77.7852 210.921 77.0865 211.489 75.9505C212.056 74.8159 212.08 73.1039 211.56 70.8132C211.08 68.7025 210.318 67.2465 209.276 66.4425C208.233 65.6385 207.122 65.3718 205.945 65.6385C204.669 65.9292 203.72 66.6719 203.096 67.8599C202.472 69.0519 202.414 70.7678 202.925 73.0078ZM198.113 98.1519L189.936 62.1825L199.284 60.0572L200.158 63.9078C201.084 61.9972 202.02 60.6319 202.969 59.8132C204.25 58.7145 205.774 57.9625 207.541 57.5612C211.025 56.7692 214.022 57.4905 216.533 59.7212C219.045 61.9545 220.748 65.0345 221.64 68.9599C222.625 73.2945 222.338 76.8385 220.78 79.5932C219.221 82.3465 216.856 84.0852 213.682 84.8065C212.145 85.1558 210.682 85.2132 209.296 84.9772C207.909 84.7412 206.6 84.2239 205.369 83.4199L208.197 95.8585L198.113 98.1519Z" fill="#17181A"/>
<path d="M225.914 73.7949L235.614 70.6095C236.29 71.6935 237.054 72.4055 237.906 72.7468C238.756 73.0855 239.796 73.1175 241.023 72.8388C242.363 72.5322 243.338 72.0108 243.943 71.2722C244.419 70.7175 244.584 70.1215 244.439 69.4842C244.276 68.7655 243.774 68.2948 242.932 68.0748C242.33 67.9202 240.82 67.9029 238.406 68.0215C234.8 68.2069 232.264 68.1935 230.798 67.9869C229.331 67.7762 227.996 67.1668 226.794 66.1508C225.592 65.1362 224.812 63.8415 224.455 62.2735C224.066 60.5575 224.228 58.9668 224.943 57.4975C225.659 56.0295 226.822 54.7882 228.432 53.7788C230.043 52.7682 232.32 51.9282 235.264 51.2589C238.374 50.5522 240.72 50.2695 242.31 50.4055C243.898 50.5442 245.299 51.0002 246.515 51.7722C247.732 52.5455 248.86 53.7069 249.902 55.2602L240.643 58.3455C240.208 57.5655 239.66 57.0469 238.999 56.7842C238.094 56.4389 237.086 56.3908 235.974 56.6455C234.846 56.9015 234.07 57.2882 233.644 57.8055C233.22 58.3228 233.072 58.8682 233.203 59.4402C233.347 60.0762 233.784 60.4842 234.514 60.6615C235.242 60.8402 236.731 60.8095 238.983 60.5722C242.388 60.1948 244.978 60.1562 246.748 60.4575C248.52 60.7589 249.976 61.4348 251.118 62.4802C252.259 63.5268 252.998 64.7935 253.336 66.2815C253.678 67.7842 253.556 69.3495 252.972 70.9775C252.387 72.6055 251.212 74.0615 249.45 75.3482C247.687 76.6322 245.12 77.6602 241.751 78.4269C236.991 79.5082 233.447 79.5988 231.119 78.7015C228.79 77.8028 227.055 76.1669 225.914 73.7949Z" fill="#17181A"/>
<path d="M259 68.6692L269.214 68.6118L269.265 77.6425L259.05 77.7012L259 68.6692ZM258.465 40.8185L269.409 40.7572L269.457 49.1612L267.438 66.0545L260.67 66.0932L258.513 49.2212L258.465 40.8185Z" fill="#17181A"/>
<path d="M145.691 123.727C145.466 123.935 144.818 124.773 143.888 128.021C142.662 132.305 143.418 136.213 144.858 139.016C145.134 138.439 145.326 137.772 145.458 137.147C146.84 130.6 146.438 124.675 145.691 123.727ZM154.472 127.928C154.127 128.575 153.55 129.907 152.686 132.633C151.54 136.244 151.535 139.145 152.172 141.364L152.296 141.029C153.864 136.445 154.628 130.129 154.472 127.928ZM164.035 133.545C164.031 133.545 163.28 133.551 161.599 136.673C159.67 140.253 159.179 143.2 160.095 145.683C160.207 145.987 160.34 146.283 160.496 146.576C161.208 146.272 161.818 145.776 162.258 145.104C164.124 142.249 165.019 136.387 164.324 134.095C164.182 133.625 164.036 133.545 164.035 133.545ZM171.574 155.504L171.334 155.459C165.332 153.135 161.742 150.864 159.876 148.136C158.522 148.408 157.006 148.228 155.567 147.544C154.17 146.88 152.826 145.719 151.86 144.048C150.959 144.741 149.847 144.932 148.626 144.548C147.271 144.121 145.862 142.981 144.69 141.333C143.944 141.872 143.18 141.952 142.62 141.905C138.656 141.583 133.285 133.692 132.899 125.284C132.882 124.916 133.167 124.604 133.535 124.588C133.895 124.557 134.215 124.855 134.231 125.224C134.596 133.204 139.711 140.332 142.728 140.576C143.218 140.624 143.627 140.471 143.971 140.204C142.159 137.027 141.22 132.495 142.607 127.655C143.754 123.648 144.766 122.081 145.983 122.372C148.279 122.943 147.978 131.667 146.762 137.423C146.486 138.727 146.088 139.664 145.635 140.333C146.687 141.887 147.934 142.932 149.026 143.276C150 143.581 150.723 143.323 151.258 142.815C150.21 140.233 149.992 136.716 151.415 132.229C153.286 126.325 154.039 126.164 154.49 126.069C154.807 126.003 155.124 126.107 155.35 126.363C156.582 127.753 155.11 136.925 153.558 141.461C153.356 142.052 153.106 142.567 152.815 143.004C153.643 144.627 154.862 145.732 156.139 146.339C157.163 146.827 158.214 147.003 159.17 146.913C159.05 146.661 158.942 146.405 158.844 146.145C157.788 143.281 158.304 139.977 160.424 136.041C161.831 133.431 162.978 132.213 164.034 132.212H164.035C164.35 132.212 164.935 132.328 165.351 133.095C166.514 135.24 165.671 142.32 163.374 145.833C162.832 146.661 162.084 147.288 161.216 147.697C163.003 150.047 166.395 152.116 171.815 154.217C172.158 154.349 172.328 154.735 172.195 155.079C172.094 155.343 171.84 155.504 171.574 155.504Z" fill="#17181A"/>
<path d="M225.733 210.48C225.808 210.688 226.105 211.236 227.288 212.331C229.271 214.163 231.072 214.977 232.796 214.788C232.939 214.775 233.081 214.753 233.223 214.724C233.128 214.32 232.936 213.945 232.644 213.624C230.768 211.568 226.644 210.267 225.733 210.48ZM221.08 216.145C221.528 216.476 222.171 216.913 223.088 217.488C224.897 218.619 226.511 219.141 227.889 219.251C225.679 217.881 222.789 216.668 221.08 216.145ZM222.264 225.392C220.231 225.392 218.092 224.929 216.183 223.808C215.864 223.62 215.759 223.213 215.944 222.895C216.131 222.576 216.54 222.473 216.857 222.657C221.613 225.449 227.761 223.501 229.027 221.467C229.173 221.228 229.308 220.925 229.223 220.572C227.341 220.772 225.028 220.273 222.381 218.617C218.988 216.497 218.727 215.867 218.748 215.361C218.761 215.063 218.931 214.803 219.203 214.664C220.529 213.991 226.543 216.763 229.049 218.409C229.377 218.625 229.655 218.859 229.879 219.107C230.987 218.836 231.845 218.264 232.416 217.579C232.807 217.109 233.069 216.596 233.199 216.083L232.932 216.115C230.8 216.331 228.661 215.415 226.384 213.309C224.819 211.863 224.211 210.865 224.413 210.075C224.477 209.824 224.688 209.375 225.371 209.204C227.216 208.745 231.768 210.685 233.629 212.725C234.048 213.184 234.333 213.724 234.484 214.304C236.224 213.487 238.064 211.653 240.243 208.609C240.457 208.309 240.873 208.24 241.173 208.455C241.472 208.668 241.541 209.085 241.328 209.385C238.808 212.904 236.708 214.899 234.599 215.713C234.516 216.652 234.128 217.607 233.44 218.433C232.764 219.243 231.779 219.939 230.532 220.315C230.665 220.915 230.545 221.549 230.159 222.169C229.035 223.98 225.811 225.392 222.264 225.392Z" fill="#17181A"/>
<path d="M134.792 242.661L169.404 181.904L179.061 234.619L134.792 242.661ZM239.922 223.563L219.146 227.336L200.284 124.388L160.2 131.669L94.8809 247.668L101.894 285.945L185.677 270.725L191.413 302.033L231.498 294.752L225.762 263.445L246.538 259.669L239.922 223.563Z" fill="url(#paint0_angular_89_1241)"/>
<path d="M407.24 117.385C406.466 110.273 405.044 103.953 402.978 98.4278C400.912 92.9011 397.806 87.4838 393.658 82.1745C389.511 76.8665 383.864 72.2598 376.719 68.3531C369.572 64.4505 360.14 61.7305 348.423 60.2038C324.034 57.0264 305.02 61.3558 291.38 73.1905C277.739 85.0265 268.764 107.698 264.45 141.206C262.695 154.834 262.26 167.432 263.148 179C264.031 190.565 266.154 199.869 269.518 206.909C274.119 216.801 280.631 224.701 289.05 230.605C297.467 236.509 309 240.418 323.65 242.328C349.779 245.73 369.143 240.716 381.742 227.277C394.339 213.84 402.698 191.128 406.815 159.142C408.652 144.874 408.794 130.954 407.24 117.385Z" fill="url(#paint1_angular_89_1241)"/>
<path d="M335.688 228.641C332.481 228.531 329.068 228.241 325.544 227.781C313.339 226.193 303.895 223.104 297.473 218.599C291.139 214.156 286.344 208.311 282.817 200.724L282.751 200.587C280.188 195.223 278.513 187.581 277.772 177.883C276.965 167.365 277.377 155.656 278.996 143.079C283.755 106.117 293.584 90.6959 300.992 84.2692C309.629 76.7759 321.287 73.3879 336.632 73.9146C339.776 74.0213 343.105 74.3026 346.527 74.7479C356.376 76.0306 364.168 78.2106 369.688 81.2239C375.033 84.1466 379.209 87.5052 382.1 91.2052C385.305 95.3066 387.707 99.4639 389.239 103.563C390.869 107.924 392.02 113.109 392.66 118.973C394.08 131.385 393.945 144.245 392.269 157.269C388.572 185.988 381.429 206.167 371.043 217.244C363.337 225.464 351.773 229.192 335.691 228.641H335.688Z" fill="#17181A"/>
<path d="M327.655 134.14C316.595 133.762 307.934 124.487 308.314 113.426C308.692 102.352 317.968 93.6922 329.028 94.0709C340.088 94.4509 348.75 103.724 348.37 114.798C347.991 125.859 338.715 134.519 327.655 134.14ZM361.782 117.779L361.955 112.728L358.853 111.716C358.727 109.991 358.437 108.286 358.027 106.644L360.655 104.707L358.871 99.9629L355.619 100.224C354.844 98.6909 353.934 97.2309 352.914 95.8629L354.597 93.0522L351.135 89.3589L348.229 90.8456C346.92 89.7336 345.54 88.7269 344.063 87.8362L344.533 84.6096L339.923 82.5163L337.811 84.9936C336.2 84.4709 334.534 84.0803 332.808 83.8216L332.021 80.6589L326.959 80.4856L325.959 83.5856C324.219 83.7269 322.528 84.0029 320.887 84.4122L318.935 81.7976L314.192 83.5696L314.453 86.8216C312.92 87.6096 311.46 88.5189 310.092 89.5402L307.295 87.8563L303.587 91.3042L305.075 94.2243C303.963 95.5189 302.955 96.9123 302.078 98.3909L298.852 97.9056L296.747 102.516L299.235 104.63C298.713 106.24 298.308 107.92 298.063 109.632L294.887 110.431L294.715 115.482L297.828 116.495C297.955 118.234 298.244 119.926 298.655 121.566L296.027 123.506L297.812 128.248L301.063 127.987C301.837 129.52 302.748 130.979 303.769 132.348L302.084 135.159L305.547 138.852L308.453 137.364C309.749 138.476 311.141 139.486 312.619 140.376L312.135 143.602L316.746 145.694L318.872 143.219C320.482 143.74 322.15 144.131 323.875 144.391L324.66 147.552L329.724 147.726L330.724 144.624C332.463 144.484 334.153 144.21 335.795 143.798L337.733 146.412L342.478 144.64L342.228 141.391C343.763 140.603 345.208 139.691 346.591 138.671L349.388 140.355L353.095 136.906L351.608 133.988C352.719 132.691 353.727 131.298 354.606 129.82L357.831 130.306L359.936 125.694L357.447 123.58C357.97 121.971 358.373 120.304 358.619 118.578L361.782 117.779Z" fill="url(#paint2_angular_89_1241)"/>
<path d="M359.677 229.12L356.273 228.739L355.896 226.556C355.813 226.537 355.731 226.519 355.649 226.499C361.903 224.628 367.004 221.553 371.043 217.244C375.247 212.76 378.92 206.785 382.048 199.356L382.713 201.668L380.847 202.852C381.043 203.983 381.143 205.141 381.149 206.312L383.196 207.145L382.831 210.551L380.633 210.928C380.376 212.043 380.041 213.139 379.599 214.231L381.168 215.783L379.521 218.784L377.368 218.305C376.68 219.265 375.932 220.144 375.124 220.959L375.991 223.001L373.311 225.141L371.515 223.863C370.525 224.484 369.493 225.009 368.432 225.457L368.435 227.672L365.156 228.637L363.972 226.756C362.827 226.951 361.668 227.067 360.513 227.073L359.677 229.12Z" fill="url(#paint3_angular_89_1241)"/>
<path d="M351.025 227.093L348.024 225.445L348.519 223.276C347.559 222.605 346.68 221.856 345.865 221.049L343.807 221.915L341.667 219.235L342.947 217.423C342.324 216.449 341.799 215.417 341.351 214.356L339.135 214.359L338.171 211.064L340.053 209.881C339.857 208.751 339.741 207.592 339.749 206.437L337.704 205.587L338.069 202.183L340.251 201.821C340.508 200.691 340.857 199.595 341.301 198.501L339.732 196.949L341.379 193.948L343.531 194.428C344.204 193.468 344.967 192.589 345.76 191.773L344.909 189.731L347.572 187.591L349.385 188.871C350.375 188.249 351.407 187.723 352.468 187.276L352.449 185.059L355.744 184.096L356.928 185.977C358.073 185.781 359.216 185.665 360.387 185.659L361.221 183.613L364.625 183.995L365.004 186.175C366.119 186.432 367.231 186.767 368.307 187.224L369.875 185.64L372.876 187.287L372.38 189.456C373.341 190.128 374.22 190.876 375.035 191.684L377.077 190.833L379.217 193.497L377.953 195.311C378.576 196.283 379.101 197.316 379.548 198.392L381.764 198.375L382.048 199.356C378.92 206.785 375.247 212.76 371.043 217.244C367.004 221.553 361.903 224.628 355.649 226.499C354.617 226.251 353.589 225.933 352.592 225.524L351.025 227.093ZM360.444 200.423C358.347 200.423 356.316 201.535 355.235 203.504C353.653 206.384 354.7 210.007 357.579 211.589C358.485 212.087 359.464 212.323 360.431 212.323C362.536 212.323 364.581 211.203 365.665 209.228C367.245 206.349 366.184 202.74 363.304 201.16C362.395 200.66 361.412 200.423 360.444 200.423Z" fill="#5FDCB2"/>
<path d="M375.412 165.761C370.164 165.581 366.065 161.176 366.244 155.944C366.424 150.696 370.815 146.596 376.061 146.776C381.309 146.954 385.409 151.345 385.229 156.594C385.051 161.826 380.659 165.941 375.412 165.761ZM401.72 152.929L397.745 150.184L397.743 150.174C397.349 148.73 396.807 147.34 396.144 146.034L397.163 142.038L391.399 135.865L387.34 136.608C386.084 135.857 384.735 135.222 383.323 134.73L383.312 134.728L380.845 130.573L372.403 130.284L369.659 134.258L369.643 134.262C368.2 134.656 366.812 135.197 365.508 135.858L361.513 134.84L355.339 140.606L356.081 144.656L356.079 144.66C355.313 145.93 354.692 147.28 354.201 148.692L350.048 151.158L349.759 159.601L353.736 162.346C354.129 163.801 354.655 165.188 355.331 166.505V166.506L354.316 170.49L360.08 176.665L364.113 175.926C365.385 176.678 366.736 177.316 368.167 177.806L368.169 177.808L370.633 181.956L379.075 182.245L381.817 178.274C383.277 177.881 384.667 177.338 385.988 176.674H385.989L389.965 177.688L396.139 171.924L395.397 167.873C396.163 166.602 396.784 165.252 397.275 163.838L401.431 161.37L401.72 152.929Z" fill="white"/>
<path d="M423.939 76.9134C423.592 74.9721 424.887 73.1201 426.823 72.7734C428.764 72.4268 430.615 73.7161 430.962 75.6575C431.31 77.5975 430.02 79.4481 428.079 79.7961C426.143 80.1428 424.287 78.8534 423.939 76.9134ZM430.723 85.5615L431.419 83.8881L431.422 83.8854C431.92 83.6268 432.388 83.3188 432.816 82.9721L434.363 83.0321L436.176 80.4281L435.584 78.9974C435.76 78.4761 435.888 77.9321 435.956 77.3734L435.958 77.3694L437.288 76.1361L436.73 73.0134L435.054 72.3201L435.051 72.3148C434.794 71.8161 434.486 71.3481 434.139 70.9215L434.199 69.3748L431.595 67.5615L430.167 68.1535L430.166 68.1521C429.639 67.9708 429.094 67.8494 428.536 67.7814L427.304 66.4508L424.182 67.0081L423.486 68.6854C422.983 68.9428 422.515 69.2468 422.084 69.5988L420.542 69.5401L418.728 72.1428L419.318 73.5641C419.142 74.0921 419.014 74.6374 418.946 75.2014V75.2028L417.616 76.4348L418.175 79.5575L419.85 80.2508C420.108 80.7561 420.418 81.2241 420.764 81.6561L420.766 81.6575L420.707 83.1961L423.31 85.0094L424.738 84.4188C425.266 84.6001 425.81 84.7215 426.367 84.7895H426.368L427.602 86.1201L430.723 85.5615Z" fill="url(#paint4_angular_89_1241)"/>
<path d="M394.142 76.7158L393.125 75.8558C394.894 73.7598 397.405 71.1038 401.136 69.1505L401.753 70.3331C397.777 72.4131 395.23 75.4292 394.142 76.7158Z" fill="url(#paint5_angular_89_1241)"/>
<path d="M404.788 69.1318L404.262 67.9052C409.306 65.7452 414.575 64.9025 419.914 65.3985L419.79 66.7265C414.67 66.2385 409.624 67.0572 404.788 69.1318Z" fill="url(#paint6_angular_89_1241)"/>
<path d="M402.271 78.356L401.168 77.6066C403.907 73.5839 409.319 70.0813 414.331 69.088L414.589 70.3946C409.893 71.328 404.828 74.6013 402.271 78.356Z" fill="url(#paint7_angular_89_1241)"/>
<path d="M299.154 170.281C296.73 173.94 295.876 178.324 296.75 182.625C297.624 186.927 300.12 190.631 303.778 193.056C311.333 198.06 321.55 195.991 326.553 188.44C331.558 180.888 329.488 170.667 321.937 165.657C314.388 160.653 304.168 162.727 299.154 170.281ZM312.832 197.119C309.461 197.119 306.056 196.165 303.041 194.168C299.086 191.547 296.388 187.541 295.444 182.891C294.498 178.24 295.422 173.501 298.042 169.545H298.044C303.464 161.379 314.513 159.136 322.673 164.545C330.837 169.961 333.076 181.011 327.665 189.176C324.252 194.328 318.593 197.119 312.832 197.119ZM306.274 201.433L306.462 201.46C307.89 201.88 309.376 202.157 310.877 202.281C311.038 202.295 311.189 202.367 311.301 202.483L314.014 205.28L321.884 203.684L323.297 200.041C323.356 199.891 323.468 199.765 323.61 199.691C324.948 198.995 326.21 198.165 327.364 197.224C327.485 197.124 327.622 197.057 327.796 197.073L332.422 197.144L336.858 190.451L334.986 186.207C334.922 186.063 334.913 185.901 334.957 185.751C335.378 184.296 335.654 182.811 335.777 181.336C335.79 181.175 335.861 181.025 335.977 180.912L338.777 178.197L337.181 170.329L333.545 168.919C333.39 168.859 333.264 168.744 333.19 168.596C332.497 167.263 331.666 166.004 330.722 164.855C330.622 164.732 330.568 164.579 330.57 164.421L330.641 159.789L323.949 155.353L319.714 157.221C319.57 157.283 319.41 157.293 319.26 157.252C317.814 156.832 316.324 156.556 314.829 156.431C314.668 156.417 314.518 156.345 314.406 156.231L311.694 153.436L303.826 155.032L302.417 158.668C302.358 158.819 302.246 158.944 302.102 159.017C300.774 159.709 299.51 160.541 298.346 161.491C298.225 161.589 298.062 161.66 297.913 161.643L293.286 161.571L288.852 168.265L290.721 172.503C290.801 172.685 290.796 172.893 290.708 173.071C290.332 174.403 290.056 175.891 289.93 177.383C289.917 177.543 289.846 177.692 289.73 177.805L286.933 180.519L288.528 188.388L292.162 189.796C292.325 189.859 292.456 189.983 292.528 190.139C293.218 191.461 294.046 192.717 294.985 193.86C295.085 193.983 295.141 194.139 295.138 194.296L295.068 198.925L301.761 203.363L306.005 201.491L306.274 201.433ZM313.79 206.672C313.612 206.672 313.438 206.601 313.312 206.469L310.516 203.588C309.092 203.453 307.684 203.192 306.322 202.807L301.965 204.728C301.758 204.824 301.518 204.799 301.328 204.675L294.028 199.835C293.838 199.709 293.726 199.497 293.729 199.269L293.802 194.517C292.916 193.413 292.124 192.216 291.446 190.948L287.706 189.499C287.496 189.416 287.34 189.232 287.294 189.009L285.554 180.427C285.509 180.204 285.581 179.973 285.744 179.815L288.625 177.02C288.758 175.604 289.02 174.193 289.404 172.821L287.484 168.469C287.392 168.261 287.413 168.021 287.538 167.832L292.377 160.531C292.502 160.341 292.68 160.224 292.944 160.232L297.692 160.305C298.806 159.415 300.006 158.624 301.264 157.952L302.714 154.211C302.797 153.999 302.981 153.843 303.204 153.797L311.786 152.057C312.01 152.013 312.24 152.084 312.398 152.245L315.19 155.124C316.609 155.257 318.021 155.52 319.394 155.904L323.745 153.987C323.952 153.895 324.192 153.916 324.382 154.041L331.682 158.88C331.872 159.005 331.984 159.219 331.98 159.447L331.908 164.2C332.796 165.305 333.585 166.503 334.26 167.767L338.002 169.219C338.216 169.3 338.37 169.484 338.416 169.707L340.156 178.289C340.201 178.512 340.129 178.743 339.966 178.901L337.084 181.697C336.952 183.099 336.69 184.505 336.304 185.889L338.225 190.247C338.317 190.455 338.297 190.696 338.172 190.885L333.333 198.184C333.208 198.373 333.008 198.468 332.768 198.483L328.017 198.411C326.91 199.293 325.712 200.081 324.449 200.756L322.996 204.505C322.913 204.719 322.728 204.873 322.506 204.919L313.922 206.66L313.79 206.672Z" fill="white"/>
<path d="M461.877 221.305L513.554 174.201L506.466 227.324L461.877 221.305ZM567.768 235.596L546.842 232.772L560.682 129.027L520.308 123.579L422.37 213.747L417.224 252.32L501.613 263.709L497.404 295.259L537.78 300.707L541.988 269.159L562.914 271.981L567.768 235.596Z" fill="url(#paint8_angular_89_1241)"/>
<path d="M525.512 299.719L525.391 299.708C525.029 299.641 524.789 299.293 524.856 298.932L555.957 128.359C556.023 127.997 556.373 127.772 556.732 127.823C557.095 127.888 557.334 128.236 557.268 128.599L526.167 299.171C526.108 299.493 525.828 299.719 525.512 299.719Z" fill="#17181A"/>
<path d="M553.108 131.224C553.088 131.827 552.583 132.297 551.979 132.279C551.376 132.257 550.904 131.751 550.924 131.148C550.946 130.545 551.451 130.072 552.054 130.093C552.658 130.115 553.13 130.619 553.108 131.224Z" fill="#17181A"/>
<path d="M548.665 154.29C548.644 154.893 548.139 155.365 547.536 155.345C546.932 155.325 546.46 154.818 546.481 154.216C546.501 153.613 547.008 153.14 547.611 153.161C548.213 153.181 548.685 153.688 548.665 154.29Z" fill="#17181A"/>
<path d="M544.222 177.359C544.202 177.961 543.695 178.433 543.092 178.413C542.49 178.392 542.018 177.887 542.038 177.283C542.059 176.68 542.564 176.208 543.167 176.228C543.771 176.249 544.243 176.756 544.222 177.359Z" fill="#17181A"/>
<path d="M535.484 201.372C535.464 201.975 534.959 202.447 534.355 202.427C533.752 202.405 533.28 201.9 533.3 201.297C533.322 200.695 533.827 200.223 534.43 200.243C535.034 200.264 535.506 200.769 535.484 201.372Z" fill="#17181A"/>
<path d="M535.335 223.495C535.315 224.097 534.809 224.568 534.205 224.549C533.603 224.528 533.131 224.021 533.152 223.419C533.172 222.816 533.677 222.343 534.28 222.364C534.884 222.385 535.356 222.891 535.335 223.495Z" fill="#17181A"/>
<path d="M530.892 246.561C530.87 247.165 530.365 247.636 529.762 247.616C529.16 247.596 528.686 247.089 528.708 246.487C528.728 245.884 529.234 245.412 529.837 245.432C530.44 245.452 530.912 245.959 530.892 246.561Z" fill="#17181A"/>
<path d="M526.448 269.629C526.428 270.232 525.923 270.705 525.32 270.684C524.716 270.664 524.244 270.157 524.264 269.555C524.286 268.951 524.791 268.48 525.394 268.5C525.998 268.52 526.47 269.027 526.448 269.629Z" fill="#17181A"/>
<path d="M522.005 292.698C521.985 293.3 521.478 293.774 520.876 293.752C520.273 293.731 519.801 293.224 519.821 292.622C519.842 292.019 520.348 291.548 520.95 291.567C521.553 291.588 522.026 292.095 522.005 292.698Z" fill="#17181A"/>
<path d="M534.392 202.001C534.084 202.001 533.808 201.788 533.742 201.475C533.664 201.115 533.892 200.761 534.252 200.683L537.564 199.972C537.93 199.9 538.279 200.123 538.356 200.485C538.434 200.844 538.204 201.199 537.844 201.277L534.532 201.988L534.392 202.001Z" fill="#17181A"/>
<path d="M545.447 189.719C545.447 189.719 542.463 197.491 541.459 202.199C540.454 206.908 540.394 217.432 540.394 217.432" fill="#17181A"/>
<path d="M540.393 218.099H540.389C540.021 218.096 539.724 217.796 539.727 217.428C539.729 216.996 539.799 206.781 540.807 202.059C541.811 197.353 544.701 189.799 544.824 189.479C544.956 189.136 545.34 188.965 545.685 189.096C546.029 189.227 546.201 189.613 546.069 189.956C546.039 190.035 543.092 197.735 542.111 202.337C541.132 206.928 541.06 217.332 541.06 217.436C541.057 217.803 540.76 218.099 540.393 218.099Z" fill="#17181A"/>
<path d="M296.603 333.184C298.455 303.315 295.048 249.016 351.195 256.204C411.376 263.907 394.159 334.279 394.159 334.279L296.603 333.184Z" fill="#17181A"/>
<path d="M359.852 290.729C359.852 304.261 348.883 315.229 335.352 315.229C321.82 315.229 310.851 304.261 310.851 290.729C310.851 277.199 321.82 266.229 335.352 266.229C348.883 266.229 359.852 277.199 359.852 290.729Z" fill="white"/>
<path d="M338.569 266.269C326.965 264.285 314.556 272.84 313.333 281.507L359.342 285.737C357.721 275.859 347.777 267.84 338.569 266.269Z" fill="#17181A"/>
<path d="M354.102 290.12C353.772 296.525 350.282 301.553 346.304 301.348C342.327 301.144 339.37 295.785 339.699 289.381C340.027 282.976 343.518 277.948 347.495 278.153C351.472 278.356 354.431 283.715 354.102 290.12Z" fill="#17181A"/>
<path d="M335.352 267.563C322.578 267.563 312.184 277.955 312.184 290.729C312.184 303.504 322.578 313.896 335.352 313.896C348.126 313.896 358.519 303.504 358.519 290.729C358.519 277.955 348.126 267.563 335.352 267.563ZM335.352 316.562C321.107 316.562 309.518 304.975 309.518 290.729C309.518 276.485 321.107 264.896 335.352 264.896C349.596 264.896 361.186 276.485 361.186 290.729C361.186 304.975 349.596 316.562 335.352 316.562Z" fill="url(#paint9_angular_89_1241)"/>
<path d="M389.435 322.197L388.1 322.168C388.777 315.177 388.979 305.156 386.545 295.072C386.459 294.715 386.679 294.355 387.036 294.268C387.087 294.256 387.137 294.251 387.187 294.251C387.488 294.251 387.767 294.452 387.84 294.76C390.304 304.96 390.115 315.095 389.435 322.197Z" fill="#BF59CF"/>
<path d="M383.597 285.075C383.344 285.075 383.102 284.931 382.99 284.685C381.276 280.945 379.149 277.509 376.668 274.476C376.436 274.191 376.477 273.772 376.762 273.539C376.886 273.436 377.036 273.387 377.185 273.387C377.377 273.387 377.569 273.471 377.701 273.632C380.253 276.753 382.441 280.285 384.202 284.131C384.357 284.465 384.209 284.861 383.874 285.013L383.597 285.075Z" fill="#BF59CF"/>
<path d="M171.647 473.287C171.48 473.287 171.316 473.286 171.151 473.281C167.47 473.179 164.568 470.113 164.67 466.433C164.77 462.753 167.802 459.907 171.516 459.952L171.644 459.953C175.496 459.953 184.763 455.275 204.148 424.715C205.191 423.074 206.896 421.968 208.82 421.688C210.747 421.415 212.694 421.986 214.16 423.262C238.082 444.117 263.431 457.101 263.684 457.229C266.967 458.896 268.276 462.909 266.611 466.191C264.944 469.474 260.932 470.787 257.651 469.119C256.644 468.609 234.487 457.28 211.254 438.257C195.006 462.683 182.948 473.287 171.647 473.287Z" fill="#17181A"/>
<path d="M212.894 422.062C212.706 422.062 212.515 422.05 212.323 422.022C210.136 421.71 208.616 419.684 208.93 417.497C209.878 410.861 208.702 385.996 200.296 366.662C199.53 364.9 200.124 362.843 201.712 361.761C219.976 349.315 258.88 347.827 260.528 347.769C262.724 347.721 264.587 349.42 264.664 351.627C264.742 353.835 263.014 355.687 260.807 355.764C260.446 355.777 226.434 357.081 208.956 366.7C216.402 385.95 218.088 409.948 216.848 418.629C216.563 420.624 214.852 422.062 212.894 422.062Z" fill="#17181A"/>
<path d="M219.613 416.885C216.952 410.61 204.962 411.322 197.922 416.7C194.16 419.573 189.068 428.221 188.532 431.354C187.997 434.489 190.169 437.329 193.897 437.005C198.493 436.608 204.805 429.928 204.805 429.928C200.606 434.045 206.024 436.949 214.108 430.997C218.592 427.693 222.592 423.91 219.613 416.885Z" fill="url(#paint10_angular_89_1241)"/>
<path d="M462.303 306.249C462.903 306.473 463.584 306.605 464.219 306.68C470.862 307.467 476.728 306.537 477.606 305.709C477.379 305.504 476.484 304.933 473.167 304.299C468.79 303.465 464.966 304.563 462.303 306.249ZM460.62 313.745L460.966 313.839C465.672 314.992 472.03 315.188 474.21 314.831C473.534 314.545 472.155 314.089 469.362 313.473C465.664 312.659 462.774 312.912 460.62 313.745ZM456.175 322.503C456.543 323.185 457.091 323.748 457.802 324.125C460.81 325.727 466.73 326.093 468.95 325.197C469.404 325.013 469.472 324.861 469.472 324.86C469.472 324.856 469.399 324.111 466.138 322.715C462.4 321.116 459.419 320.892 457.03 322.024C456.738 322.164 456.452 322.323 456.175 322.503ZM448.942 334.945L448.756 334.919C448.403 334.817 448.199 334.447 448.3 334.095C450.076 327.908 452.016 324.128 454.567 322.027C454.176 320.699 454.22 319.173 454.771 317.681C455.307 316.229 456.343 314.787 457.919 313.675C457.147 312.84 456.86 311.748 457.132 310.5C457.435 309.112 458.444 307.607 459.98 306.291C459.378 305.597 459.23 304.84 459.224 304.281C459.191 300.304 466.568 294.247 474.908 293.109C475.274 293.041 475.61 293.313 475.659 293.679C475.708 294.044 475.452 294.38 475.087 294.429C467.171 295.509 460.532 301.241 460.558 304.269C460.562 304.76 460.744 305.155 461.04 305.473C464.043 303.384 468.474 302.04 473.416 302.989C477.51 303.772 479.174 304.636 478.98 305.879C478.618 308.216 469.902 308.699 464.06 308.003C462.738 307.845 461.768 307.533 461.06 307.143C459.608 308.331 458.679 309.664 458.435 310.783C458.218 311.783 458.54 312.479 459.095 312.964C461.571 311.688 465.055 311.155 469.65 312.171C475.699 313.505 475.926 314.243 476.06 314.681C476.158 314.996 476.079 315.317 475.846 315.564C474.571 316.915 465.304 316.275 460.648 315.133C460.043 314.985 459.507 314.783 459.046 314.532C457.502 315.503 456.511 316.816 456.022 318.143C455.63 319.207 455.54 320.267 455.722 321.213C455.962 321.069 456.206 320.94 456.456 320.82C459.215 319.511 462.552 319.729 466.662 321.488C469.388 322.656 470.703 323.688 470.799 324.74C470.828 325.052 470.767 325.647 470.039 326.129C468.006 327.48 460.879 327.276 457.174 325.303C456.3 324.836 455.608 324.149 455.123 323.321C452.943 325.312 451.186 328.876 449.582 334.461C449.498 334.755 449.231 334.945 448.942 334.945Z" fill="#17181A"/>
<path d="M275.37 471.06C276.248 470.78 275.954 469.932 274.973 469.932H256.921C222.546 466.29 198.529 471.171 213.664 472.32C228.797 473.471 212.597 473.229 201.545 477.409C190.494 481.59 283.75 482.645 292.233 477.409C300.056 472.583 263.189 474.964 275.37 471.06Z" fill="#17181A"/>
<path d="M404.625 476.381L247.556 471.173L241.037 318.879L426.518 323.027L404.625 476.381Z" fill="url(#paint11_angular_89_1241)"/>
<path d="M296.603 473.467C296.259 473.467 295.967 473.204 295.939 472.855L283.347 319.893C283.318 319.527 283.59 319.205 283.958 319.175C284.334 319.155 284.647 319.417 284.676 319.784L297.268 472.745C297.298 473.113 297.026 473.435 296.658 473.464L296.603 473.467Z" fill="#17181A"/>
<path d="M404.625 476.381L446.841 469.953L460.138 328.34L426.518 323.027L404.625 476.381Z" fill="url(#paint12_angular_89_1241)"/>
<path d="M404.625 476.381L406.274 464.829C406.456 464.824 406.634 464.821 406.808 464.821C411.882 464.821 413.65 467.121 413.748 467.256C413.638 467.105 413.594 467.012 413.594 467.012L425.072 460.227C424.821 459.803 420.072 452.06 408.174 451.514L426.518 323.027L460.138 328.34L455.588 376.796L455.557 377.129L449.973 436.595L449.942 436.928L448.608 451.137L448.577 451.471L446.841 469.953L404.625 476.381Z" fill="url(#paint13_linear_89_1241)"/>
<path d="M260.979 441.819L257.107 351.335C256.703 341.892 264.366 334.069 273.816 334.281L391.228 336.907C401.032 337.127 408.442 345.865 407.056 355.573L394.039 446.763C392.859 455.027 385.646 461.076 377.303 460.8L276.782 457.468C268.232 457.184 261.346 450.363 260.979 441.819Z" fill="#17181A"/>
<path d="M273.662 362.048L291.828 362.625L291.678 367.309L280.306 366.948L280.196 370.433L290.745 370.769L290.602 375.243L280.053 374.908L279.916 379.232L291.617 379.605L291.458 384.572L272.965 383.984L273.662 362.048Z" fill="white"/>
<path d="M302.424 371.86L305.282 371.951C305.591 371.96 306.192 371.881 307.087 371.71C307.539 371.634 307.912 371.416 308.208 371.056C308.504 370.696 308.66 370.276 308.675 369.798C308.698 369.089 308.491 368.539 308.054 368.146C307.618 367.752 306.78 367.535 305.543 367.496L302.566 367.4L302.424 371.86ZM295.2 384.691L295.899 362.755L307.195 363.115C309.291 363.182 310.886 363.412 311.982 363.807C313.078 364.2 313.948 364.895 314.596 365.889C315.244 366.884 315.546 368.079 315.5 369.475C315.462 370.693 315.168 371.734 314.622 372.6C314.075 373.467 313.339 374.16 312.412 374.679C311.823 375.01 311.02 375.275 310.004 375.472C310.803 375.768 311.383 376.056 311.743 376.336C311.987 376.524 312.336 376.92 312.791 377.524C313.246 378.128 313.548 378.593 313.696 378.917L316.778 385.379L309.118 385.134L305.708 378.315C305.276 377.434 304.886 376.856 304.535 376.586C304.056 376.231 303.508 376.044 302.89 376.024L302.292 376.004L302.008 384.908L295.2 384.691Z" fill="white"/>
<path d="M326.26 372.617L329.117 372.71C329.427 372.72 330.028 372.639 330.923 372.467C331.375 372.392 331.749 372.174 332.044 371.815C332.34 371.453 332.496 371.035 332.511 370.556C332.533 369.847 332.327 369.296 331.889 368.903C331.453 368.51 330.616 368.293 329.379 368.255L326.401 368.16L326.26 372.617ZM319.036 385.45L319.735 363.514L331.032 363.874C333.127 363.94 334.721 364.171 335.817 364.564C336.913 364.959 337.784 365.653 338.432 366.647C339.08 367.641 339.381 368.838 339.336 370.234C339.297 371.451 339.005 372.492 338.459 373.359C337.911 374.226 337.175 374.917 336.249 375.439C335.659 375.77 334.856 376.032 333.84 376.229C334.639 376.526 335.219 376.813 335.58 377.095C335.823 377.282 336.172 377.677 336.627 378.282C337.081 378.887 337.384 379.351 337.533 379.675L340.613 386.136L332.953 385.892L329.544 379.074C329.113 378.192 328.721 377.615 328.371 377.344C327.893 376.989 327.344 376.802 326.727 376.782L326.128 376.763L325.844 385.667L319.036 385.45Z" fill="white"/>
<path d="M348.532 375.453C348.461 377.669 348.823 379.273 349.615 380.267C350.407 381.26 351.511 381.78 352.928 381.825C354.384 381.872 355.527 381.433 356.355 380.51C357.183 379.589 357.636 377.9 357.713 375.446C357.78 373.383 357.411 371.86 356.609 370.881C355.805 369.901 354.692 369.389 353.265 369.343C351.897 369.3 350.785 369.749 349.927 370.691C349.068 371.632 348.603 373.22 348.532 375.453ZM341.755 375.209C341.869 371.626 342.955 368.871 345.013 366.94C347.072 365.008 349.881 364.098 353.443 364.212C357.095 364.328 359.876 365.397 361.789 367.42C363.701 369.444 364.601 372.221 364.489 375.752C364.408 378.316 363.909 380.404 362.995 382.017C362.079 383.631 360.792 384.868 359.132 385.729C357.472 386.591 355.425 386.981 352.991 386.904C350.517 386.825 348.483 386.367 346.887 385.526C345.289 384.686 344.016 383.398 343.063 381.661C342.109 379.922 341.673 377.772 341.755 375.209Z" fill="white"/>
<path d="M375.1 374.172L377.957 374.264C378.267 374.274 378.868 374.193 379.763 374.022C380.215 373.947 380.588 373.728 380.884 373.368C381.18 373.007 381.336 372.588 381.351 372.111C381.373 371.401 381.167 370.851 380.729 370.458C380.292 370.064 379.456 369.847 378.219 369.808L375.241 369.714L375.1 374.172ZM367.876 387.004L368.573 365.067L379.872 365.427C381.967 365.495 383.561 365.724 384.657 366.119C385.753 366.512 386.625 367.208 387.272 368.201C387.92 369.196 388.221 370.393 388.176 371.787C388.137 373.004 387.845 374.047 387.297 374.912C386.751 375.78 386.013 376.472 385.088 376.993C384.499 377.323 383.696 377.587 382.68 377.784C383.479 378.079 384.059 378.368 384.419 378.648C384.663 378.838 385.012 379.232 385.467 379.838C385.921 380.441 386.224 380.904 386.373 381.229L389.453 387.691L381.793 387.447L378.384 380.627C377.952 379.746 377.561 379.17 377.211 378.898C376.733 378.544 376.184 378.356 375.565 378.336L374.968 378.317L374.684 387.222L367.876 387.004Z" fill="white"/>
<path d="M378.665 424.274C378.19 424.274 377.718 424.083 377.372 423.705L365.958 411.213L353.642 422.465C352.929 423.119 351.822 423.067 351.169 422.355L339.756 409.862L327.44 421.115C326.726 421.768 325.618 421.717 324.968 421.004L313.553 408.512L301.237 419.767C300.896 420.08 300.434 420.244 299.978 420.224C299.514 420.203 299.078 419.998 298.765 419.656L287.35 407.164L275.034 418.416C274.322 419.068 273.214 419.016 272.562 418.305C271.91 417.592 271.961 416.484 272.674 415.833L286.281 403.398C286.994 402.744 288.102 402.796 288.754 403.509L300.168 416.003L312.484 404.748C312.826 404.434 313.285 404.273 313.744 404.291C314.206 404.312 314.644 404.516 314.957 404.859L326.37 417.35L338.686 406.098C339.398 405.445 340.506 405.496 341.16 406.209L352.573 418.701L364.889 407.448C365.602 406.793 366.709 406.844 367.361 407.559L379.957 421.343C380.609 422.057 380.558 423.165 379.845 423.816C379.509 424.122 379.086 424.274 378.665 424.274Z" fill="white"/>
<path d="M167.667 479.619L159.323 475.638L151.879 439.416L155.919 434.967L167.667 479.619Z" fill="url(#paint14_angular_89_1241)"/>
<path d="M167.667 479.619L178.74 473.15L169.247 443.305L155.919 434.967L167.667 479.619Z" fill="url(#paint15_angular_89_1241)"/>
<path d="M167.667 479.619L155.919 434.967L169.247 443.305L178.74 473.15L167.667 479.619Z" fill="url(#paint16_linear_89_1241)"/>
<path d="M349.266 486.204C348.951 486.204 348.643 486.198 348.344 486.191C344.664 486.089 341.762 483.024 341.863 479.343C341.964 475.665 345.004 472.772 348.71 472.862C358.98 473.198 380.718 466.889 393.135 454.836C393.903 454.091 394.838 453.541 395.863 453.233C416.914 446.916 424.75 459.679 425.072 460.226L413.595 467.012C413.595 467.012 413.639 467.105 413.748 467.256C413.622 467.08 410.64 463.204 401.147 465.603C385.564 479.826 361.644 486.204 349.266 486.204Z" fill="#17181A"/>
<path d="M348.526 495.065L324.242 493.536L322.326 448.768L354.962 449.986L348.526 495.065Z" fill="url(#paint17_angular_89_1241)"/>
<path d="M348.526 495.065L354.202 489.417L357.721 461.502L354.962 449.986L348.526 495.065Z" fill="url(#paint18_angular_89_1241)"/>
<path d="M348.526 495.065L354.962 449.986L357.721 461.502L354.202 489.417L348.526 495.065Z" fill="url(#paint19_linear_89_1241)"/>
<path d="M489.213 478.113C488.37 478.113 487.52 477.847 486.796 477.298C472.937 466.764 454.202 448.063 447.013 430.022C446.909 429.759 446.832 429.484 446.785 429.204C443.28 408.36 439.93 364.483 439.789 362.624C439.622 360.423 441.273 358.502 443.474 358.335C445.672 358.172 447.6 359.818 447.766 362.02C447.801 362.468 451.182 406.776 454.604 427.451C461.773 444.993 481.213 463.005 491.637 470.928C493.396 472.265 493.738 474.775 492.401 476.534C491.614 477.568 490.421 478.113 489.213 478.113Z" fill="#17181A"/>
<path d="M507.704 480.133C504.611 480.133 501.105 478.731 497.284 475.967C495.495 474.671 495.093 472.171 496.389 470.381C497.685 468.592 500.185 468.191 501.975 469.485C505.277 471.876 507.081 472.133 507.704 472.133C509.913 472.133 511.704 473.924 511.704 476.133C511.704 478.343 509.913 480.133 507.704 480.133Z" fill="#17181A"/>
<path d="M498.405 475.853C502.685 463.139 520.232 465.652 526.274 467.54C532.317 469.428 537.761 471.803 541.033 473.944C544.306 476.083 544.36 479.658 539.996 481.699C534.614 484.216 521.113 481.982 521.113 481.982C528.102 485.041 521.1 489.946 508.84 485.128C504.849 483.56 496.894 480.511 498.405 475.853Z" fill="url(#paint20_angular_89_1241)"/>
<path d="M455.816 368.112C454.227 378.914 445.283 386.88 438.005 385.81C430.728 384.74 430.427 375.093 432.013 364.291C433.603 353.488 436.48 345.621 443.756 346.692C451.033 347.761 457.404 357.309 455.816 368.112Z" fill="#17181A"/>
<path d="M280.925 323.896C280.925 324.5 280.437 324.989 279.833 324.989C279.229 324.989 278.741 324.5 278.741 323.896C278.741 323.293 279.229 322.804 279.833 322.804C280.437 322.804 280.925 323.293 280.925 323.896Z" fill="#17181A"/>
<path d="M290.944 331.767C290.944 332.371 290.456 332.86 289.852 332.86C289.248 332.86 288.759 332.371 288.759 331.767C288.759 331.164 289.248 330.673 289.852 330.673C290.456 330.673 290.944 331.164 290.944 331.767Z" fill="#17181A"/>
<path d="M292.167 460.973C292.167 461.577 291.677 462.065 291.075 462.065C290.471 462.065 289.981 461.577 289.981 460.973C289.981 460.371 290.471 459.881 291.075 459.881C291.677 459.881 292.167 460.371 292.167 460.973Z" fill="#17181A"/>
<path d="M302.185 468.844C302.185 469.448 301.696 469.938 301.092 469.938C300.489 469.938 300 469.448 300 468.844C300 468.24 300.489 467.751 301.092 467.751C301.696 467.751 302.185 468.24 302.185 468.844Z" fill="#17181A"/>
<path d="M124.677 468.598H124.675C124.671 468.6 124.174 468.852 123.981 471.079C123.786 473.322 124.193 474.843 125.226 475.724C125.46 475.926 125.728 476.093 126.025 476.229C126.402 475.813 126.659 475.345 126.75 474.859C127.107 472.926 126.186 470.097 125.155 468.952C124.886 468.655 124.714 468.598 124.677 468.598ZM116.289 469.756C116.281 470.257 116.327 471.1 116.526 472.501C116.796 474.404 117.498 475.867 118.55 476.797C118.238 474.12 117.05 471.02 116.289 469.756ZM108.86 470.919C108.784 471.122 108.644 471.797 108.974 473.644C109.412 476.097 111 477.726 112.759 478.588C112.751 478.304 112.698 477.989 112.604 477.644C111.557 473.833 109.566 471.207 108.86 470.919ZM110.014 481.955C106.841 481.955 102.55 480.032 100.236 476.689C100.026 476.388 100.102 475.972 100.404 475.762C100.707 475.552 101.122 475.628 101.332 475.932C103.82 479.524 109.304 481.44 111.739 480.305C111.995 480.185 112.203 480.034 112.362 479.853C110.186 478.848 108.197 476.88 107.661 473.879C107.359 472.188 107.119 469.904 108.513 469.589C110.425 469.16 112.927 473.784 113.89 477.289C114.068 477.938 114.124 478.538 114.063 479.08C114.906 479.31 115.735 479.371 116.445 479.268C117.022 479.184 117.843 478.946 118.278 478.274C116.658 477.179 115.568 475.249 115.205 472.688C114.688 469.043 115.076 468.407 115.48 468.096C115.743 467.893 116.076 467.856 116.397 467.992C117.823 468.598 119.551 473.771 119.881 476.697C119.917 477.02 119.917 477.329 119.884 477.621C120.43 477.838 121.031 477.957 121.682 477.971C122.838 478.037 123.981 477.669 124.895 477.132C124.706 477.014 124.527 476.883 124.359 476.738C122.976 475.557 122.418 473.668 122.653 470.964C122.833 468.874 123.309 467.732 124.15 467.373C124.444 467.243 125.044 467.12 125.76 467.692C127.199 468.843 128.544 472.489 128.06 475.101C127.96 475.641 127.727 476.16 127.391 476.636C129.837 477.057 133.28 476.371 136.249 475.637C136.605 475.55 136.968 475.767 137.056 476.124C137.144 476.483 136.927 476.843 136.569 476.932C132.956 477.826 129.066 478.552 126.319 477.755C125.097 478.726 123.378 479.316 121.655 479.304C120.869 479.288 120.138 479.148 119.469 478.893C118.944 479.788 117.966 480.393 116.638 480.588C115.752 480.72 114.709 480.635 113.654 480.333C113.354 480.833 112.901 481.233 112.303 481.514C111.665 481.81 110.881 481.953 110.014 481.955Z" fill="#17181A"/>
<path d="M305.164 492.033L308.777 485.767L305.164 479.501H301.296L303.481 485.768L301.296 492.033H305.164Z" fill="#17181A"/>
<path d="M301.551 489.033C299.751 489.033 298.284 487.567 298.284 485.767C298.284 483.967 299.751 482.514 301.551 482.514L295.408 481.284L293.777 486.245L296.519 490.431L301.551 489.033Z" fill="#17181A"/>
<path d="M298.463 489.033C296.663 489.033 295.196 487.567 295.196 485.767C295.196 483.967 296.663 482.513 298.463 482.513C300.263 482.513 301.716 483.967 301.716 485.767C301.716 487.567 300.263 489.033 298.463 489.033ZM302.076 479.501H294.836L291.223 485.767L294.836 492.033H302.076L305.689 485.767L302.076 479.501Z" fill="url(#paint21_angular_89_1241)"/>
<path d="M557.186 479.083L554.503 474.429L557.186 469.776H560.059L558.436 474.429L560.059 479.083H557.186Z" fill="url(#paint22_angular_89_1241)"/>
<path d="M559.869 476.854C561.206 476.854 562.296 475.766 562.296 474.429C562.296 473.093 561.206 472.012 559.869 472.012L564.432 471.1L565.642 474.784L563.606 477.892L559.869 476.854Z" fill="url(#paint23_angular_89_1241)"/>
<path d="M562.164 476.855C563.5 476.855 564.589 475.767 564.589 474.429C564.589 473.093 563.5 472.012 562.164 472.012C560.827 472.012 559.747 473.093 559.747 474.429C559.747 475.767 560.827 476.855 562.164 476.855ZM559.48 469.776H564.857L567.54 474.429L564.857 479.083H559.48L556.796 474.429L559.48 469.776Z" fill="#17181A"/>
<path d="M457.264 485.262H463.288C464.856 485.262 466.14 483.977 466.14 482.408C466.14 480.84 464.856 479.558 463.288 479.558H457.264C455.695 479.558 454.412 480.84 454.412 482.408C454.412 483.977 455.695 485.262 457.264 485.262Z" fill="#17181A"/>
<path d="M447.64 479.881C449.127 476.726 452.733 475.3 455.695 476.696C458.656 478.093 459.851 481.781 458.364 484.938C456.876 488.092 453.269 489.517 450.308 488.12C447.347 486.724 446.152 483.036 447.64 479.881Z" fill="url(#paint24_angular_89_1241)"/>
<path d="M449.304 488.11L450.956 488.891L456.7 476.707L455.048 475.928L449.304 488.11Z" fill="#17181A"/>
<defs>
<radialGradient id="paint0_angular_89_1241" cx="0" cy="0" r="1" gradientUnits="userSpaceOnUse" gradientTransform="translate(94.8809 124.388) rotate(90) scale(123.019 109.04)">
<stop stop-color="#059186"/>
<stop offset="0.182292" stop-color="#11D0C1"/>
<stop offset="1" stop-color="#059186"/>
</radialGradient>
<radialGradient id="paint1_angular_89_1241" cx="0" cy="0" r="1" gradientUnits="userSpaceOnUse" gradientTransform="translate(262.701 59.1951) rotate(90) scale(127.534 104.689)">
<stop stop-color="#059186"/>
<stop offset="0.182292" stop-color="#11D0C1"/>
<stop offset="1" stop-color="#059186"/>
</radialGradient>
<radialGradient id="paint2_angular_89_1241" cx="0" cy="0" r="1" gradientUnits="userSpaceOnUse" gradientTransform="translate(294.715 80.4856) rotate(90) scale(46.5637 48.3446)">
<stop stop-color="#059186"/>
<stop offset="0.182292" stop-color="#11D0C1"/>
<stop offset="1" stop-color="#059186"/>
</radialGradient>
<radialGradient id="paint3_angular_89_1241" cx="0" cy="0" r="1" gradientUnits="userSpaceOnUse" gradientTransform="translate(355.649 199.356) rotate(90) scale(20.6116 19.8057)">
<stop stop-color="#059186"/>
<stop offset="0.182292" stop-color="#11D0C1"/>
<stop offset="1" stop-color="#059186"/>
</radialGradient>
<radialGradient id="paint4_angular_89_1241" cx="0" cy="0" r="1" gradientUnits="userSpaceOnUse" gradientTransform="translate(417.616 66.4508) rotate(90) scale(13.621 14.1439)">
<stop stop-color="#059186"/>
<stop offset="0.182292" stop-color="#11D0C1"/>
<stop offset="1" stop-color="#059186"/>
</radialGradient>
<radialGradient id="paint5_angular_89_1241" cx="0" cy="0" r="1" gradientUnits="userSpaceOnUse" gradientTransform="translate(393.125 69.1505) rotate(90) scale(5.23899 6.20341)">
<stop stop-color="#059186"/>
<stop offset="0.182292" stop-color="#11D0C1"/>
<stop offset="1" stop-color="#059186"/>
</radialGradient>
<radialGradient id="paint6_angular_89_1241" cx="0" cy="0" r="1" gradientUnits="userSpaceOnUse" gradientTransform="translate(404.262 65.2605) rotate(90) scale(2.68088 11.2536)">
<stop stop-color="#059186"/>
<stop offset="0.182292" stop-color="#11D0C1"/>
<stop offset="1" stop-color="#059186"/>
</radialGradient>
<radialGradient id="paint7_angular_89_1241" cx="0" cy="0" r="1" gradientUnits="userSpaceOnUse" gradientTransform="translate(401.168 69.088) rotate(90) scale(6.41809 9.64974)">
<stop stop-color="#059186"/>
<stop offset="0.182292" stop-color="#11D0C1"/>
<stop offset="1" stop-color="#059186"/>
</radialGradient>
<radialGradient id="paint8_angular_89_1241" cx="0" cy="0" r="1" gradientUnits="userSpaceOnUse" gradientTransform="translate(417.224 123.579) rotate(90) scale(122.661 108.239)">
<stop stop-color="#059186"/>
<stop offset="0.182292" stop-color="#11D0C1"/>
<stop offset="1" stop-color="#059186"/>
</radialGradient>
<radialGradient id="paint9_angular_89_1241" cx="0" cy="0" r="1" gradientUnits="userSpaceOnUse" gradientTransform="translate(309.518 264.896) rotate(90) scale(35.7792 37.1486)">
<stop stop-color="#059186"/>
<stop offset="0.182292" stop-color="#11D0C1"/>
<stop offset="1" stop-color="#059186"/>
</radialGradient>
<radialGradient id="paint10_angular_89_1241" cx="0" cy="0" r="1" gradientUnits="userSpaceOnUse" gradientTransform="translate(188.451 412.421) rotate(90) scale(17.0422 23.1443)">
<stop stop-color="#059186"/>
<stop offset="0.182292" stop-color="#11D0C1"/>
<stop offset="1" stop-color="#059186"/>
</radialGradient>
<radialGradient id="paint11_angular_89_1241" cx="0" cy="0" r="1" gradientUnits="userSpaceOnUse" gradientTransform="translate(241.037 318.879) rotate(90) scale(109.071 133.358)">
<stop stop-color="#059186"/>
<stop offset="0.182292" stop-color="#11D0C1"/>
<stop offset="1" stop-color="#059186"/>
</radialGradient>
<radialGradient id="paint12_angular_89_1241" cx="0" cy="0" r="1" gradientUnits="userSpaceOnUse" gradientTransform="translate(404.625 323.027) rotate(90) scale(106.198 39.9133)">
<stop stop-color="#059186"/>
<stop offset="0.182292" stop-color="#11D0C1"/>
<stop offset="1" stop-color="#059186"/>
</radialGradient>
<linearGradient id="paint13_linear_89_1241" x1="432.382" y1="476.381" x2="432.382" y2="323.027" gradientUnits="userSpaceOnUse">
<stop stop-color="#059186"/>
<stop offset="0.510317" stop-color="#059186"/>
<stop offset="0.510417" stop-color="#02A698"/>
<stop offset="1" stop-color="#02A698"/>
</linearGradient>
<radialGradient id="paint14_angular_89_1241" cx="0" cy="0" r="1" gradientUnits="userSpaceOnUse" gradientTransform="translate(151.879 434.967) rotate(90) scale(30.9216 11.3514)">
<stop stop-color="#059186"/>
<stop offset="0.182292" stop-color="#11D0C1"/>
<stop offset="1" stop-color="#059186"/>
</radialGradient>
<radialGradient id="paint15_angular_89_1241" cx="0" cy="0" r="1" gradientUnits="userSpaceOnUse" gradientTransform="translate(155.919 434.967) rotate(90) scale(30.9216 16.4082)">
<stop stop-color="#059186"/>
<stop offset="0.182292" stop-color="#11D0C1"/>
<stop offset="1" stop-color="#059186"/>
</radialGradient>
<linearGradient id="paint16_linear_89_1241" x1="167.33" y1="479.619" x2="167.33" y2="434.967" gradientUnits="userSpaceOnUse">
<stop stop-color="#059186"/>
<stop offset="0.510317" stop-color="#059186"/>
<stop offset="0.510417" stop-color="#02A698"/>
<stop offset="1" stop-color="#02A698"/>
</linearGradient>
<radialGradient id="paint17_angular_89_1241" cx="0" cy="0" r="1" gradientUnits="userSpaceOnUse" gradientTransform="translate(322.326 448.768) rotate(90) scale(32.0609 23.4648)">
<stop stop-color="#059186"/>
<stop offset="0.182292" stop-color="#11D0C1"/>
<stop offset="1" stop-color="#059186"/>
</radialGradient>
<radialGradient id="paint18_angular_89_1241" cx="0" cy="0" r="1" gradientUnits="userSpaceOnUse" gradientTransform="translate(348.526 449.986) rotate(90) scale(31.2169 6.61083)">
<stop stop-color="#059186"/>
<stop offset="0.182292" stop-color="#11D0C1"/>
<stop offset="1" stop-color="#059186"/>
</radialGradient>
<linearGradient id="paint19_linear_89_1241" x1="353.124" y1="495.065" x2="353.124" y2="449.986" gradientUnits="userSpaceOnUse">
<stop stop-color="#059186"/>
<stop offset="0.510317" stop-color="#059186"/>
<stop offset="0.510417" stop-color="#02A698"/>
<stop offset="1" stop-color="#02A698"/>
</linearGradient>
<radialGradient id="paint20_angular_89_1241" cx="0" cy="0" r="1" gradientUnits="userSpaceOnUse" gradientTransform="translate(498.217 465.986) rotate(90) scale(14.6569 32.4792)">
<stop stop-color="#059186"/>
<stop offset="0.182292" stop-color="#11D0C1"/>
<stop offset="1" stop-color="#059186"/>
</radialGradient>
<radialGradient id="paint21_angular_89_1241" cx="0" cy="0" r="1" gradientUnits="userSpaceOnUse" gradientTransform="translate(291.223 479.501) rotate(90) scale(8.67861 10.4013)">
<stop stop-color="#059186"/>
<stop offset="0.182292" stop-color="#11D0C1"/>
<stop offset="1" stop-color="#059186"/>
</radialGradient>
<radialGradient id="paint22_angular_89_1241" cx="0" cy="0" r="1" gradientUnits="userSpaceOnUse" gradientTransform="translate(554.503 469.776) rotate(90) scale(6.44496 3.99468)">
<stop stop-color="#059186"/>
<stop offset="0.182292" stop-color="#11D0C1"/>
<stop offset="1" stop-color="#059186"/>
</radialGradient>
<radialGradient id="paint23_angular_89_1241" cx="0" cy="0" r="1" gradientUnits="userSpaceOnUse" gradientTransform="translate(559.869 471.1) rotate(90) scale(4.70364 4.15093)">
<stop stop-color="#059186"/>
<stop offset="0.182292" stop-color="#11D0C1"/>
<stop offset="1" stop-color="#059186"/>
</radialGradient>
<radialGradient id="paint24_angular_89_1241" cx="0" cy="0" r="1" gradientUnits="userSpaceOnUse" gradientTransform="translate(447 476.16) rotate(90) scale(8.65383 8.63021)">
<stop stop-color="#059186"/>
<stop offset="0.182292" stop-color="#11D0C1"/>
<stop offset="1" stop-color="#059186"/>
</radialGradient>
</defs>
</svg>
