<svg width="1217" height="1119" viewBox="0 0 1217 1119" fill="none" xmlns="http://www.w3.org/2000/svg">
<g clip-path="url(#clip0_99_2)">
<path d="M1024.47 978.653C1017.69 978.653 1010.9 978.15 1004.11 976.893C769.61 934.386 499.669 854.404 243.802 751.785C185.742 728.394 157.592 662.748 180.967 604.647C204.341 546.547 269.942 518.377 328.002 541.768C570.045 638.854 824.403 714.309 1044.33 754.3C1105.91 765.367 1146.62 824.222 1135.56 885.844C1125.76 940.423 1078.26 978.653 1024.47 978.653Z" fill="#059186"/>
<path d="M1015.93 535.229C1013.16 535.229 1010.65 535.229 1007.88 534.977C626.848 508.316 324.986 465.81 85.2051 404.943C24.6316 389.6 -12.0644 327.978 3.51881 267.363C18.8507 206.747 80.4296 170.277 141.003 185.62C367.463 243.217 656.255 283.711 1023.72 309.366C1086.05 313.642 1133.05 367.718 1128.78 430.094C1124.51 489.704 1074.74 535.229 1015.93 535.229Z" fill="#059186"/>
<path d="M192.528 413.746C156.084 413.746 122.655 411.734 94.2533 406.955C32.6744 396.643 -8.79705 338.039 1.50799 276.417C11.813 214.796 70.3758 173.295 131.955 183.608C190.769 193.668 344.088 186.374 597.692 136.574C792.231 98.3432 980.235 46.7822 1055.14 10.8152C1111.44 -16.0971 1179.05 7.79704 1205.94 64.1369C1232.83 120.477 1208.96 188.135 1152.66 215.047C1039.8 269.123 806.558 325.966 641.174 358.664C526.562 381.3 336.547 413.746 192.528 413.746Z" fill="url(#paint0_linear_99_2)"/>
<path d="M487.856 1119C427.785 1119 378.019 1071.97 375.003 1011.35C371.987 948.974 419.993 895.904 482.577 892.886C669.828 883.831 833.954 841.325 970.182 766.373C1024.97 736.191 1093.59 756.312 1123.75 811.143C1153.91 865.974 1133.81 934.638 1079.01 964.82C912.373 1056.37 715.321 1108.18 493.385 1119C491.374 1119 489.615 1119 487.856 1119Z" fill="url(#paint1_linear_99_2)"/>
<path d="M286.028 760.085C228.219 760.085 178.956 716.069 173.426 657.214C167.646 595.09 213.39 539.756 275.723 534.223C584.623 505.801 736.936 446.191 961.385 322.948C1016.18 293.018 1084.79 312.887 1114.96 367.718C1144.86 422.549 1125.01 491.213 1070.22 521.395C953.845 585.281 851.548 636.087 730.904 675.827C605.484 717.076 467.497 743.736 296.584 759.582C293.065 759.833 289.547 760.085 286.028 760.085Z" fill="url(#paint2_linear_99_2)"/>
</g>
<defs>
<linearGradient id="paint0_linear_99_2" x1="0.469722" y1="204.137" x2="1215.95" y2="214.912" gradientUnits="userSpaceOnUse">
<stop stop-color="#1B9C85"/>
<stop offset="1" stop-color="#45D1B8"/>
</linearGradient>
<linearGradient id="paint1_linear_99_2" x1="375.202" y1="933.354" x2="1137.15" y2="938.135" gradientUnits="userSpaceOnUse">
<stop stop-color="#1B9C85"/>
<stop offset="1" stop-color="#45D1B8"/>
</linearGradient>
<linearGradient id="paint2_linear_99_2" x1="173.352" y1="531.707" x2="1128.08" y2="537.809" gradientUnits="userSpaceOnUse">
<stop stop-color="#1B9C85"/>
<stop offset="1" stop-color="#45D1B8"/>
</linearGradient>
<clipPath id="clip0_99_2">
<rect width="1217" height="1119" fill="white"/>
</clipPath>
</defs>
</svg>
