<svg width="60" height="60" viewBox="0 0 60 60" fill="none" xmlns="http://www.w3.org/2000/svg">
<g id="Group 14547">
<rect id="Rectangle 28044" width="60" height="60" rx="12" fill="url(#paint0_angular_140_39)"/>
<g id="Group 10082">
<g id="Vector">
<path d="M23.3012 31.2173C24.0676 31.2173 24.7063 30.8979 25.2173 30.2593C25.7538 29.6206 26.1881 28.8414 26.5202 27.9216C26.8779 27.0019 27.1334 26.0439 27.2867 25.0475C27.4399 24.0512 27.5166 23.1825 27.5166 22.4417C27.5166 21.7519 27.4016 21.177 27.1717 20.7172C26.9418 20.2318 26.4436 19.9891 25.6772 19.9891H23.9527L21.5384 31.2173H23.3012ZM21.0019 33.6699L19.2775 41.7174H11L16.1734 17.3832H25.0257C26.4819 17.3832 27.8104 17.4599 29.0111 17.6131C30.2119 17.7664 31.2465 18.073 32.1152 18.5329C32.9838 18.9927 33.6608 19.657 34.1462 20.5256C34.6316 21.3687 34.8743 22.5055 34.8743 23.9362C34.8743 25.2647 34.6572 26.5293 34.2229 27.73C33.8141 28.9052 33.1371 29.9399 32.1918 30.8341C31.2721 31.7027 30.0714 32.3925 28.5896 32.9034C27.1078 33.4144 25.3067 33.6699 23.1863 33.6699H21.0019Z" fill="white"/>
<path d="M41.0884 22.2573C41.165 21.874 41.3357 23.5274 41.3357 22.8632C41.3357 22.48 41.3101 22.1095 41.2591 21.7519C41.208 21.3687 39.7192 21.4904 39.5915 21.2094C39.4637 20.9028 39.8469 20.8705 39.5915 20.7172C39.336 20.5384 39.2919 20.3112 38.8831 20.3112C38.4233 20.3112 38.5382 19.8997 38.155 20.104C37.7718 20.3084 37.4269 20.5767 37.1203 20.9088C36.8393 21.2154 36.6094 21.5858 36.4305 22.0201C36.2772 22.4289 36.2006 22.8632 36.2006 23.3231C36.2006 23.9873 36.3667 24.4982 36.6988 24.8559C37.0565 25.2136 37.5163 25.5074 38.0784 25.7373C38.6404 25.9672 39.2791 26.1588 39.9944 26.3121C40.7098 26.4654 41.4507 26.6443 42.2171 26.8486C42.8558 27.0275 42.5454 27.5149 43.1841 27.7959C43.8228 28.0769 45.1607 28.0953 45.8193 28.6881C46.3303 29.1479 46.739 29.7611 47.0456 30.5275C47.3522 31.2684 47.5055 32.2009 47.5055 33.325C47.5055 34.9345 47.1861 36.2885 46.5474 37.3871C45.9087 38.4856 45.0273 39.3798 43.9032 40.0696C42.7791 40.7594 41.4379 41.2575 39.8795 41.5641C38.3466 41.8707 36.6732 42.024 34.8594 42.024C33.0199 42.024 31.5126 41.909 30.3374 41.6791C29.1878 41.4236 28.2808 41.1553 27.6166 40.8743C26.8246 40.5422 26.237 40.159 25.8538 39.7247L27.1567 34.4746H33.9013C33.8758 34.7046 33.8502 35.0239 33.8247 35.4327C33.7991 35.8159 33.7863 36.1225 33.7863 36.3524C33.7863 36.659 33.8247 36.9783 33.9013 37.3104C33.978 37.6425 34.0929 37.9491 34.2462 38.2301C34.425 38.5112 34.6677 38.7411 34.9743 38.9199C35.2809 39.0988 35.6641 39.1882 36.124 39.1882C36.6349 39.1882 37.082 39.0732 37.4652 38.8433C37.874 38.6134 38.2061 38.3323 38.4616 38.0002C38.7426 37.6425 38.947 37.2593 39.0747 36.8506C39.228 36.4162 39.3047 35.9947 39.3047 35.5859C39.3047 35.0239 39.1641 34.5513 38.8831 34.1681C38.6276 33.7848 38.27 33.4655 37.8101 33.21C37.3503 32.929 36.8137 32.6991 36.2006 32.5202C35.613 32.3158 34.9999 32.1115 34.3612 31.9071C33.748 31.7282 33.0966 31.5111 32.4068 31.2556C31.7425 31.0001 31.1294 30.6425 30.5673 30.1826C30.0053 29.7228 29.5327 29.1479 29.1494 28.4581C28.7918 27.7428 28.6129 26.8359 28.6129 25.7373C28.6129 24.1023 29.0217 22.7355 29.8392 21.6369C30.6823 20.5128 31.7298 19.6059 32.9816 18.9161C34.259 18.2263 35.6513 17.7409 37.1586 17.4599C38.666 17.1533 40.0966 17 41.4507 17C43.239 17 44.7719 17.2172 46.0492 17.6515C47.3522 18.0602 48.3358 18.5456 49 19.1077L47.2258 23.4548L41.0884 22.2573Z" fill="white"/>
<path d="M19.3828 18.964H28.6638V31.5382H19.3828V18.964Z" fill="white"/>
<path d="M37.3471 17.8987L44.1332 23.3231L42.4356 27.7959L34.8058 27.4193L37.3471 17.8987Z" fill="white"/>
</g>
<path id="Vector_2" fill-rule="evenodd" clip-rule="evenodd" d="M22.4206 25.3027C22.4097 24.975 22.4634 24.6484 22.5788 24.3415C22.6941 24.0346 22.8687 23.7534 23.0927 23.514C23.3167 23.2746 23.5857 23.0816 23.8843 22.9461C24.1829 22.8107 24.5052 22.7353 24.8329 22.7244C25.1606 22.7135 25.4872 22.7672 25.7942 22.8825C26.1011 22.9979 26.3823 23.1725 26.6217 23.3965C26.8612 23.6205 27.0541 23.8894 27.1896 24.188C27.3251 24.4865 27.4004 24.8089 27.4113 25.1365C27.4334 25.7983 27.1916 26.4417 26.7392 26.9252C26.2868 27.4088 25.6609 27.6928 24.999 27.7148C24.3372 27.7369 23.6938 27.4951 23.2102 27.0427C22.7267 26.5904 22.4426 25.9645 22.4206 25.3027ZM24.8052 21.8927C24.2757 21.9104 23.7581 22.0542 23.2954 22.3121C22.8326 22.5701 22.4382 22.9348 22.1447 23.3759C21.8513 23.8169 21.6674 24.3217 21.6082 24.8481C21.5491 25.3746 21.6165 25.9075 21.8048 26.4027C21.9931 26.8978 22.2968 27.3409 22.6908 27.6951C23.0848 28.0493 23.5576 28.3043 24.07 28.439C24.5824 28.5737 25.1195 28.5842 25.6367 28.4695C26.154 28.3549 26.6364 28.1185 27.0439 27.78L31.3873 31.7085L31.6754 31.3628C31.7844 31.3582 31.8531 32.2037 32.1304 31.534C32.2049 31.4544 32.1269 31.4569 32.1242 31.3479C32.1215 31.2388 31.8113 30.9455 31.8113 30.9455L27.6124 27.1724C27.9778 26.6679 28.1944 26.0709 28.2374 25.4495C28.2804 24.828 28.1482 24.207 27.8557 23.6569C27.5633 23.1069 27.1224 22.65 26.5831 22.3381C26.0438 22.0262 25.4278 21.8719 24.8052 21.8927ZM24.9714 26.8831C25.4126 26.8684 25.8299 26.6791 26.1315 26.3567C26.4331 26.0344 26.5942 25.6054 26.5796 25.1642C26.5649 24.723 26.3755 24.3058 26.0531 24.0042C25.7308 23.7026 25.3018 23.5414 24.8606 23.5561C24.4194 23.5708 24.0021 23.7602 23.7005 24.0825C23.3989 24.4049 23.2377 24.8338 23.2524 25.275C23.2671 25.7162 23.4564 26.1335 23.7788 26.435C24.1012 26.7366 24.5301 26.8978 24.9714 26.8831Z" fill="url(#paint1_angular_140_39)"/>
<path id="Vector_3" d="M45.7289 23.1556L38.9321 21.7897C38.5555 21.7174 38.1954 21.9389 38.1294 22.283L37.407 26.049C37.341 26.3932 37.5935 26.7321 37.9702 26.8044L38.9946 27.0009L38.7542 28.2546L41.1634 27.4169L45.1302 28.2452C45.5068 28.3175 44.1707 27.7033 44.2367 27.3591L44.9591 23.5931C44.9904 23.4271 44.9486 23.2544 44.843 23.1128C44.7374 22.9712 45.9097 23.1901 45.7289 23.1556ZM41.6856 25.8923L39.2952 25.4338L39.4155 24.807L41.8059 25.2655L41.6856 25.8923ZM42.9506 24.8352L39.5357 24.1801L39.656 23.5533L43.0708 24.2083L42.9506 24.8352Z" fill="url(#paint2_angular_140_39)"/>
</g>
</g>
<defs>
<radialGradient id="paint0_angular_140_39" cx="0" cy="0" r="1" gradientUnits="userSpaceOnUse" gradientTransform="translate(1.36579e-06 60) rotate(-90) scale(41.55 43.1392)">
<stop stop-color="#059186"/>
<stop offset="0.182292" stop-color="#11D0C1"/>
<stop offset="1" stop-color="#059186"/>
</radialGradient>
<radialGradient id="paint1_angular_140_39" cx="0" cy="0" r="1" gradientUnits="userSpaceOnUse" gradientTransform="translate(21.8156 32.1292) rotate(-91.9069) scale(7.01602 7.4508)">
<stop stop-color="#059186"/>
<stop offset="0.182292" stop-color="#11D0C1"/>
<stop offset="1" stop-color="#059186"/>
</radialGradient>
<radialGradient id="paint2_angular_140_39" cx="0" cy="0" r="1" gradientUnits="userSpaceOnUse" gradientTransform="translate(37.0467 27.927) rotate(-79.1412) scale(4.41997 5.79794)">
<stop stop-color="#059186"/>
<stop offset="0.182292" stop-color="#11D0C1"/>
<stop offset="1" stop-color="#059186"/>
</radialGradient>
</defs>
</svg>
