<svg width="17" height="18" viewBox="0 0 17 18" fill="none" xmlns="http://www.w3.org/2000/svg">
<path d="M11.1333 5.44444H5.72889C5.25596 5.44444 5.01949 5.44444 4.83885 5.34756C4.67996 5.26234 4.55078 5.12636 4.46982 4.9591C4.37778 4.76896 4.37778 4.52005 4.37778 4.02222V1M12.8222 17V11.3111C12.8222 10.8133 12.8222 10.5644 12.7302 10.3742C12.6492 10.207 12.52 10.071 12.3611 9.98577C12.1805 9.88889 11.944 9.88889 11.4711 9.88889H5.72889C5.25596 9.88889 5.01949 9.88889 4.83885 9.98577C4.67996 10.071 4.55078 10.207 4.46982 10.3742C4.37778 10.5644 4.37778 10.8133 4.37778 11.3111V17M16.2 6.62265V12.7333C16.2 14.2268 16.2 14.9735 15.9239 15.544C15.681 16.0457 15.2935 16.4537 14.8168 16.7094C14.2749 17 13.5655 17 12.1467 17H5.05333C3.63453 17 2.92513 17 2.38322 16.7094C1.90655 16.4537 1.519 16.0457 1.27612 15.544C1 14.9735 1 14.2268 1 12.7333V5.26667C1 3.77319 1 3.02646 1.27612 2.45603C1.519 1.95426 1.90655 1.54631 2.38322 1.29065C2.92513 1 3.63453 1 5.05333 1H10.8585C11.2716 1 11.4781 1 11.6725 1.04912C11.8448 1.09267 12.0095 1.1645 12.1607 1.26197C12.3311 1.37191 12.4771 1.52565 12.7692 1.83312L15.4085 4.61133C15.7006 4.9188 15.8467 5.07253 15.9511 5.25194C16.0437 5.411 16.112 5.58441 16.1533 5.76581C16.2 5.97041 16.2 6.18782 16.2 6.62265Z" stroke="#02A698" stroke-width="1.5" stroke-linecap="round" stroke-linejoin="round"/>
</svg>
